<?xml version="1.0" standalone="no"?>
<!DOCTYPE svg PUBLIC "-//W3C//DTD SVG 20010904//EN"
 "http://www.w3.org/TR/2001/REC-SVG-20010904/DTD/svg10.dtd">
<svg version="1.0" xmlns="http://www.w3.org/2000/svg"
 width="120.000000pt" height="120.000000pt" viewBox="0 0 120.000000 120.000000"
 preserveAspectRatio="xMidYMid meet">

<g transform="translate(0.000000,120.000000) scale(0.100000,-0.100000)"
fill="#FF0000" stroke="none">
<path d="M115 1185 c-49 -17 -90 -62 -104 -112 -15 -53 -15 -894 0 -948 14
-50 64 -100 114 -114 55 -15 895 -15 950 0 50 14 100 64 114 114 15 55 15 895
0 950 -14 50 -64 100 -114 114 -64 18 -909 14 -960 -4z m455 -262 c0 -18 4
-33 9 -33 9 0 21 48 21 87 0 14 4 21 10 18 6 -3 10 -32 11 -63 l1 -57 19 40
c10 22 19 48 19 58 0 10 5 15 11 12 7 -5 8 -26 4 -59 -6 -49 -6 -50 10 -29 8
12 22 37 30 55 l14 33 1 -33 c0 -18 -5 -42 -11 -53 -23 -44 -1 -40 31 5 39 54
52 45 21 -15 -30 -57 -27 -59 24 -9 53 52 60 35 13 -29 -30 -41 -30 -43 -7
-31 13 7 39 24 57 38 46 35 40 9 -10 -39 -37 -36 -39 -41 -18 -34 14 4 40 16
59 26 50 29 48 16 -6 -30 l-48 -41 55 16 c30 9 60 19 65 22 6 3 4 -2 -4 -12
-8 -10 -32 -26 -53 -37 -21 -11 -38 -22 -38 -25 0 -5 44 1 99 12 45 10 5 -23
-47 -37 l-47 -13 70 -6 c65 -5 68 -6 42 -17 -15 -7 -41 -13 -57 -13 -17 0 -30
-4 -30 -9 0 -9 48 -21 87 -21 14 0 21 -4 18 -10 -3 -5 -32 -10 -63 -11 l-57
-1 40 -19 c22 -10 48 -19 58 -19 10 0 15 -5 12 -11 -5 -7 -26 -8 -59 -4 -49 6
-50 6 -29 -10 12 -8 37 -22 55 -30 l33 -14 -33 -1 c-18 0 -42 5 -53 11 -44 23
-40 1 5 -31 55 -40 45 -52 -15 -20 -23 11 -43 19 -45 17 -2 -2 15 -22 38 -45
49 -50 31 -56 -31 -10 -41 30 -43 30 -31 7 7 -13 24 -39 38 -56 35 -47 9 -41
-39 10 -36 36 -41 38 -34 17 4 -14 16 -40 26 -59 29 -50 16 -48 -30 6 l-41 48
16 -55 c9 -30 19 -59 22 -65 3 -5 -2 -4 -12 4 -10 8 -26 32 -37 53 -11 21 -22
38 -25 38 -5 0 1 -43 12 -100 9 -41 -18 -7 -38 48 l-16 47 -2 -70 c-1 -66 -2
-69 -15 -45 -8 14 -14 40 -15 58 0 17 -4 32 -9 32 -9 0 -21 -48 -21 -87 0 -14
-4 -21 -10 -18 -5 3 -10 32 -11 63 l-1 57 -19 -40 c-10 -22 -19 -48 -19 -58 0
-10 -5 -15 -11 -12 -7 5 -8 26 -4 59 6 49 6 50 -10 29 -8 -12 -22 -37 -30 -55
l-14 -33 -1 33 c0 18 5 42 11 53 23 44 1 40 -31 -5 -40 -55 -52 -45 -20 15 11
23 19 43 17 45 -2 3 -23 -14 -46 -37 -49 -49 -54 -31 -9 30 30 41 30 43 7 31
-13 -7 -39 -24 -56 -38 -47 -35 -41 -9 10 39 36 36 38 41 17 34 -14 -4 -40
-16 -59 -26 -50 -29 -48 -16 6 30 l48 41 -55 -16 c-30 -9 -59 -19 -65 -22 -5
-3 -4 2 4 12 8 10 32 26 53 37 21 11 38 22 38 25 0 5 -43 -1 -100 -12 -41 -9
-7 18 48 38 l47 16 -70 2 c-66 1 -69 2 -45 15 14 8 40 14 58 15 17 0 32 4 32
9 0 9 -48 21 -87 21 -14 0 -21 4 -18 10 3 6 32 10 63 11 l57 1 -40 19 c-22 10
-48 19 -58 19 -10 0 -15 5 -12 11 5 7 26 8 59 4 49 -6 50 -6 29 10 -12 8 -37
22 -55 30 l-33 14 33 1 c18 0 42 -5 53 -11 44 -23 40 -1 -5 31 -55 40 -45 52
15 20 23 -11 43 -19 45 -17 2 2 -15 22 -38 45 -49 50 -31 56 31 10 41 -30 43
-30 31 -7 -7 13 -24 39 -38 57 -35 46 -9 40 39 -10 36 -37 41 -39 34 -18 -4
14 -16 40 -26 59 -29 50 -16 48 30 -6 l41 -48 -16 55 c-9 30 -19 60 -22 65 -3
6 2 4 12 -4 10 -8 26 -32 37 -53 11 -21 22 -38 25 -38 5 0 -1 44 -12 99 -10
45 23 5 37 -47 l14 -47 3 70 c3 66 4 69 17 45 8 -14 14 -40 15 -57z"/>
<path d="M511 833 c-136 -49 -198 -217 -129 -350 103 -201 409 -159 459 63 43
191 -145 355 -330 287z m167 -29 l37 -17 -57 -14 c-50 -13 -64 -13 -115 0
l-58 15 35 16 c46 20 111 20 158 0z m-118 -55 c22 -13 1 -10 -55 6 l-50 15 45
-6 c25 -4 52 -10 60 -15z m140 5 c-25 -7 -52 -13 -60 -13 -21 1 60 27 85 28
11 0 0 -7 -25 -15z m-180 -24 c11 -8 7 -9 -15 -4 -37 8 -45 14 -19 14 10 0 26
-5 34 -10z m195 0 c-11 -5 -27 -9 -35 -9 -13 -1 -13 0 0 9 8 5 24 9 35 9 l20
0 -20 -9z m-217 -25 c3 -3 -8 -22 -25 -43 -16 -20 -38 -52 -47 -71 -14 -26
-20 -31 -27 -20 -17 27 -4 111 23 146 9 11 62 3 76 -12z m308 -61 c3 -25 2
-55 -3 -67 -10 -21 -11 -20 -28 13 -10 19 -31 51 -46 71 -16 20 -29 39 -29 43
0 3 15 10 33 15 41 11 63 -11 73 -75z m-298 -11 c-20 -26 -41 -66 -49 -88 -17
-51 -29 -66 -29 -34 1 35 32 99 70 142 45 52 50 38 8 -20z m228 -30 c30 -49
46 -101 34 -108 -4 -3 -15 16 -24 41 -8 25 -31 68 -51 95 -19 27 -35 52 -35
56 0 14 53 -44 76 -84z m-174 35 c-29 -31 -72 -127 -72 -160 0 -16 -5 -28 -11
-28 -16 0 -3 72 22 123 24 47 57 87 72 87 6 0 1 -10 -11 -22z m107 -15 c45
-55 80 -173 51 -173 -5 0 -10 11 -10 24 0 38 -29 108 -61 149 -16 20 -26 37
-20 37 5 0 23 -17 40 -37z m-30 -29 c16 -25 35 -71 42 -102 10 -50 9 -57 -7
-69 -21 -16 -117 -17 -145 -2 -16 8 -19 17 -14 47 11 66 64 172 85 172 5 0 22
-21 39 -46z"/>
</g>
</svg>
