<svg xmlns="http://www.w3.org/2000/svg" viewBox="0 0 96 96" width="96" height="96"><defs><linearGradient id="sun" x2=".5" y2="1"><stop stop-color="#ffe78b"/><stop offset="1" stop-color="#f4a837"/></linearGradient><linearGradient id="moon" x2=".7" y2="1"><stop stop-color="#e2eeff"/><stop offset="1" stop-color="#83a9df"/></linearGradient><linearGradient id="cloud" x2=".3" y2="1"><stop stop-color="#fff"/><stop offset=".5" stop-color="#edf5fc"/><stop offset="1" stop-color="#b8cfdf"/></linearGradient><linearGradient id="rain" x2="0" y2="1"><stop stop-color="#69c4f4"/><stop offset="1" stop-color="#3985cf"/></linearGradient></defs><g stroke="#f5b64b" stroke-width="3" stroke-linecap="round"><path d="M36 10v-4" transform="rotate(0 36 33)"/><path d="M36 10v-4" transform="rotate(45 36 33)"/><path d="M36 10v-4" transform="rotate(90 36 33)"/><path d="M36 10v-4" transform="rotate(135 36 33)"/><path d="M36 10v-4" transform="rotate(180 36 33)"/><path d="M36 10v-4" transform="rotate(225 36 33)"/><path d="M36 10v-4" transform="rotate(270 36 33)"/><path d="M36 10v-4" transform="rotate(315 36 33)"/></g><circle cx="36" cy="33" r="16" fill="url(#sun)"/><circle cx="32" cy="28" r="5" fill="#fff4c5" opacity=".4"/><path d="M27 65C14 65 13 47 25 44c-1-18 25-26 34-10 13-7 28 3 27 17 8 8 2 18-9 18H27Z" fill="url(#cloud)" stroke="#b5cadc" stroke-width="1.4"/><path d="M30 60h43" stroke="#fff" stroke-opacity=".65" stroke-width="3" stroke-linecap="round"/></svg>
